<svg viewBox="0 0 135.78 89"><path d="M68 0h55.1c5.11 0 9.17 1.94 11.4 6.68a13.4 13.4 0 011.22 5.48q.12 32.34.05 64.69a11.56 11.56 0 01-8.87 11.7 13.71 13.71 0 01-3.67.43Q67.88 89 12.54 89C6.43 89 2 85.83.47 80.24A13.65 13.65 0 010 76.58V12.42C0 6.38 3.22 2 8.88.45A15.79 15.79 0 0112.94 0H68zM3.45 27.55v48.77c0 5.82 3.4 9.23 9.21 9.23h110.43c5.83 0 9.23-3.4 9.23-9.21V27.55zM3.5 19h128.79c0-2.66.08-5.22 0-7.77a8.15 8.15 0 00-.87-3.16c-1.69-3.38-4.64-4.62-8.28-4.62H11.87c-4.66.23-8 3.21-8.34 7.63-.18 2.6-.03 5.21-.03 7.92z"/><path d="M31.21 68.1h-9.55c-4.48 0-7.25-2.78-7.29-7.28v-6.9c.05-4.4 2.82-7.22 7.22-7.24q9.61-.06 19.22 0c4.32 0 7.11 2.86 7.16 7.17v7c0 4.41-2.83 7.2-7.22 7.22-3.18.04-6.36.03-9.54.03zm-.05-3.45h9.54c2.44 0 3.8-1.33 3.82-3.74s0-4.68 0-7a3.44 3.44 0 00-3.8-3.77H21.64a3.45 3.45 0 00-3.82 3.75v7a3.44 3.44 0 003.8 3.76zM92 50.11H65.13c-.49 0-1.08.15-1.43-.07-.57-.36-1.3-.94-1.35-1.49s.57-1.25 1.07-1.69c.29-.26.92-.19 1.4-.19h54.32c.53 0 1.21-.07 1.53.22a2.64 2.64 0 011 1.76c0 .49-.75 1.06-1.3 1.38-.36.22-.94.08-1.43.08zM77.4 63.6H64.56c-1.55 0-2.32-.59-2.32-1.73s.79-1.71 2.35-1.71h25.67c1.55 0 2.33.61 2.32 1.74s-.78 1.7-2.34 1.7z"/></svg>