<svg viewBox="0 0 260.293 260.293"><path d="M258.727 57.459a7.501 7.501 0 00-5.934-2.913H62.004l-8.333-32.055a7.499 7.499 0 00-7.259-5.613H7.5a7.5 7.5 0 000 15h33.112l8.333 32.055.001.002 29.381 112.969a7.499 7.499 0 007.258 5.612h137.822a7.499 7.499 0 007.258-5.612L260.05 63.933a7.492 7.492 0 00-1.323-6.474zm-140.85 110.058H91.385l-5.892-22.652h32.384v22.652zm0-37.653H81.592l-5.895-22.667h42.18v22.667zm0-37.667H71.795l-5.891-22.651h51.973v22.651zm58.242 75.32h-43.242v-22.652h43.242v22.652zm0-37.653h-43.242v-22.667h43.242v22.667zm0-37.667h-43.242V69.546h43.242v22.651zm41.49 75.32h-26.49v-22.652h32.382l-5.892 22.652zm9.794-37.653h-36.284v-22.667h42.18l-5.896 22.667zm9.798-37.667H191.12V69.546h51.974l-5.893 22.651zM105.482 188.62c-15.106 0-27.396 12.29-27.396 27.395 0 15.108 12.29 27.4 27.396 27.4 15.105 0 27.395-12.292 27.395-27.4 0-15.105-12.289-27.395-27.395-27.395zm0 39.795c-6.835 0-12.396-5.563-12.396-12.4 0-6.835 5.561-12.395 12.396-12.395 6.834 0 12.395 5.561 12.395 12.395 0 6.838-5.56 12.4-12.395 12.4zm98.03-39.795c-15.104 0-27.392 12.29-27.392 27.395 0 15.108 12.288 27.4 27.392 27.4 15.107 0 27.396-12.292 27.396-27.4 0-15.105-12.29-27.395-27.396-27.395zm0 39.795c-6.833 0-12.392-5.563-12.392-12.4 0-6.835 5.559-12.395 12.392-12.395 6.836 0 12.396 5.561 12.396 12.395 0 6.838-5.561 12.4-12.396 12.4z"/></svg>