<svg viewBox="0 0 118.19 118.22"><path d="M118.19 59.35c-4.59 4.09-9.17 8.19-13.79 12.26-.57.5-.5.89-.24 1.48q3.34 7.59 6.65 15.21c.09.2.16.42.3.77-.49 0-.88.06-1.28.07-5.93.12-11.85.25-17.78.31-1 0-1.27.39-1.33 1.33-.37 5.88-.79 11.75-1.21 17.62 0 .52-.11 1-.18 1.7L72 101.66l-11.07 16.56-12.57-16.56-18.83 8.82c-.38-7-.75-13.74-1.13-20.6L8.15 87.66c.21-.49.36-.87.53-1.24 2.37-5 4.72-10.1 7.12-15.12a1 1 0 00-.39-1.58C10.61 66.18 5.85 62.59 1.07 59c-.31-.23-.6-.47-1.07-.83l15.85-9.58L8.1 28.73l20.68-1.11c.37-7 .74-13.88 1.12-21l18.48 9.57L59.77 0H60a8.14 8.14 0 00.49.87c3.59 4.67 7.2 9.31 10.75 14 .57.75 1 .92 1.86.48 5.1-2.5 10.25-4.92 15.38-7.37.39-.19.79-.36 1.26-.57.64 6.85 1.25 13.53 1.87 20.21l21 1.85-10 17.34c.17.12.34.23.49.35l14.5 11.66a2.69 2.69 0 00.59.29zM83.34 18.62L69.8 25.07l-9.73-12.63-9.39 13.28-14-7.25-.88 16.16-17.1.94L25 51.73l-11.8 7.12L25.46 68 19.2 81.42c5.22.58 10.18 1.15 15.15 1.65.87.09 1.16.33 1.19 1.22.12 3.42.33 6.84.51 10.26.08 1.48.18 3 .28 4.57l14.32-6.69 9.9 13.06 8.91-13.29 13.32 6.47L84 82.08h16c-.26-.66-.42-1.08-.6-1.5-1.38-3.17-2.74-6.34-4.16-9.5a1 1 0 01.31-1.45c3.41-3 6.78-6 10.17-9.07.33-.3.65-.61 1-1l-13.62-11 7.32-12.73-15.61-1.39c-.49-5.29-.97-10.44-1.47-15.82z"/><path d="M80.3 68.85a11.1 11.1 0 01-1.3 6.32c-1.8 3-5.48 4.26-9.2 3.29a6.86 6.86 0 01-5-4.46 14.9 14.9 0 010-10.16A7.35 7.35 0 0172.49 59c4.8.4 7.5 3.17 7.81 8 .04.62 0 1.23 0 1.85zm-5.54 0c-.16-1.32-.24-2.62-.51-3.9A2.11 2.11 0 0072.11 63a2.09 2.09 0 00-2.19 1.82 15.89 15.89 0 000 7.87 2.13 2.13 0 002.25 1.9 2.11 2.11 0 002.1-1.93c.25-1.25.33-2.56.49-3.85zM38.64 49.76c0-3.27.19-6.49 2.94-8.86 4.47-3.86 12-1.31 13.14 4.46a17.28 17.28 0 010 7.09c-1 4.81-5 7.34-9.83 6.28-3.67-.81-5.85-3.44-6.19-7.48 0-.49-.03-.99-.06-1.49zm5.51-1.18c.08 1.26.12 2.18.2 3.1a6.29 6.29 0 00.23 1.13c.36 1.33 1.08 2 2.2 2s1.87-.55 2.21-1.95a16.35 16.35 0 000-7.65c-.32-1.37-1.08-2-2.17-2a2.23 2.23 0 00-2.24 2.08c-.25 1.17-.32 2.4-.43 3.29zM72 39.17c-.24.53-.39.88-.56 1.21Q62.12 59 52.8 77.67a1.59 1.59 0 01-1.76 1c-1.29-.08-2.58 0-4 0 .24-.53.39-.91.57-1.27Q57 58.81 66.35 40.2a1.61 1.61 0 011.77-1.05c1.22.07 2.45.02 3.88.02z"/></svg>