<svg viewBox="0 0 129.36 76.85"><path d="M84.51 6h2.34c6.52 0 13.06-.13 19.57.12 5.35.21 8.82 3.46 10 8.68 1.27 5.45 2.55 10.89 3.79 16.34a2.75 2.75 0 001.47 2c2 1.07 3.93 2.27 5.91 3.39a3.11 3.11 0 011.72 3V63.4c0 2.28-.92 3.18-3.25 3.18h-11.24c-.88 0-1.33.19-1.61 1.12a12.8 12.8 0 01-24.6 0c-.23-.74-.52-1.07-1.38-1.07h-50.8a37.71 37.71 0 01-2.63 5 12.09 12.09 0 01-12.37 5.1 12.29 12.29 0 01-10.2-8.85c-.32-.94-.64-1.36-1.71-1.3-2 .1-4 0-6.06 0C.84 66.52 0 65.69 0 63.06V3.32C0 .9.89 0 3.26 0h77.93c2.41 0 3.28.87 3.31 3.26.02.83.01 1.67.01 2.74zm-5.24 36.87V5.19h-74v37.68zm5.3-31.69v50.15h3.74c.15-.49.27-1 .44-1.44A12.42 12.42 0 0197 51.77a12.71 12.71 0 0116.33 8.64 1.21 1.21 0 001.41 1h8.46c.32 0 .64-.06 1-.09v-7h-7c-1.89 0-2.94-1-3-2.7q-.08-3.84 0-7.7a2.43 2.43 0 012.28-2.56 10.33 10.33 0 011.76-.09h5.9l.2-.36a6.07 6.07 0 00-.93-.9c-1.59-1-3.17-1.91-4.81-2.77a4.58 4.58 0 00-2-.55H97.91c-2.75 0-3.61-.86-3.61-3.63V11.18zM36.13 61.31h43.11v-4H57.17a7.3 7.3 0 01-1.62-.16 2.48 2.48 0 010-4.87 8.57 8.57 0 011.75-.16h22v-4h-74V61.4c1.38 0 2.69-.1 4 0s1.78-.33 2.16-1.56C14 51.19 25.55 48.2 32.12 54.42a13.76 13.76 0 014.01 6.89zm63.45-50.15v20.28h15.28c0-.15.11-.24.1-.31-1.28-5.47-2.47-11-3.9-16.41a4.72 4.72 0 00-4.48-3.53c-2.3-.19-4.58-.03-7-.03zm-76 60.56A7.74 7.74 0 1015.76 64a7.85 7.85 0 007.78 7.72zM108.66 64a7.71 7.71 0 10-7.66 7.72 7.72 7.72 0 007.66-7.72zm15.55-17.37h-4.85v2.5h4.73a6.89 6.89 0 00.11-.8c.02-.58.01-1.12.01-1.75z"/><path d="M46.27 57.33h-.38c-2 0-3.21-1-3.2-2.62s1.2-2.53 3.13-2.57a10.84 10.84 0 011.89.1 2.5 2.5 0 01.07 5 14.94 14.94 0 01-1.5.15z"/></svg>