<svg class="svg-sprites" id="skin-sprite" xmlns="http://www.w3.org/2000/svg" xmlns:xlink="http://www.w3.org/1999/xlink">
    <symbol viewBox="0 0 260.293 260.293" id="z-cart"><path d="M258.727 57.459a7.501 7.501 0 00-5.934-2.913H62.004l-8.333-32.055a7.499 7.499 0 00-7.259-5.613H7.5a7.5 7.5 0 000 15h33.112l8.333 32.055.001.002 29.381 112.969a7.499 7.499 0 007.258 5.612h137.822a7.499 7.499 0 007.258-5.612L260.05 63.933a7.492 7.492 0 00-1.323-6.474zm-140.85 110.058H91.385l-5.892-22.652h32.384v22.652zm0-37.653H81.592l-5.895-22.667h42.18v22.667zm0-37.667H71.795l-5.891-22.651h51.973v22.651zm58.242 75.32h-43.242v-22.652h43.242v22.652zm0-37.653h-43.242v-22.667h43.242v22.667zm0-37.667h-43.242V69.546h43.242v22.651zm41.49 75.32h-26.49v-22.652h32.382l-5.892 22.652zm9.794-37.653h-36.284v-22.667h42.18l-5.896 22.667zm9.798-37.667H191.12V69.546h51.974l-5.893 22.651zM105.482 188.62c-15.106 0-27.396 12.29-27.396 27.395 0 15.108 12.29 27.4 27.396 27.4 15.105 0 27.395-12.292 27.395-27.4 0-15.105-12.289-27.395-27.395-27.395zm0 39.795c-6.835 0-12.396-5.563-12.396-12.4 0-6.835 5.561-12.395 12.396-12.395 6.834 0 12.395 5.561 12.395 12.395 0 6.838-5.56 12.4-12.395 12.4zm98.03-39.795c-15.104 0-27.392 12.29-27.392 27.395 0 15.108 12.288 27.4 27.392 27.4 15.107 0 27.396-12.292 27.396-27.4 0-15.105-12.29-27.395-27.396-27.395zm0 39.795c-6.833 0-12.392-5.563-12.392-12.4 0-6.835 5.559-12.395 12.392-12.395 6.836 0 12.396 5.561 12.396 12.395 0 6.838-5.561 12.4-12.396 12.4z"/></symbol>
    <symbol viewBox="0 0 512 512" id="z-heart"><path d="M474.644 74.27C449.391 45.616 414.358 29.836 376 29.836c-53.948 0-88.103 32.22-107.255 59.25-4.969 7.014-9.196 14.047-12.745 20.665-3.549-6.618-7.775-13.651-12.745-20.665-19.152-27.03-53.307-59.25-107.255-59.25-38.358 0-73.391 15.781-98.645 44.435C13.267 101.605 0 138.213 0 177.351c0 42.603 16.633 82.228 52.345 124.7 31.917 37.96 77.834 77.088 131.005 122.397 19.813 16.884 40.302 34.344 62.115 53.429l.655.574c2.828 2.476 6.354 3.713 9.88 3.713s7.052-1.238 9.88-3.713l.655-.574c21.813-19.085 42.302-36.544 62.118-53.431 53.168-45.306 99.085-84.434 131.002-122.395C495.367 259.578 512 219.954 512 177.351c0-39.138-13.267-75.746-37.356-103.081zM309.193 401.614c-17.08 14.554-34.658 29.533-53.193 45.646-18.534-16.111-36.113-31.091-53.196-45.648C98.745 312.939 30 254.358 30 177.351c0-31.83 10.605-61.394 29.862-83.245C79.34 72.007 106.379 59.836 136 59.836c41.129 0 67.716 25.338 82.776 46.594 13.509 19.064 20.558 38.282 22.962 45.659a15 15 0 0028.524 0c2.404-7.377 9.453-26.595 22.962-45.66 15.06-21.255 41.647-46.593 82.776-46.593 29.621 0 56.66 12.171 76.137 34.27C471.395 115.957 482 145.521 482 177.351c0 77.007-68.745 135.588-172.807 224.263z"/></symbol>
    <symbol viewBox="0 0 135.78 89" id="z-card"><path d="M68 0h55.1c5.11 0 9.17 1.94 11.4 6.68a13.4 13.4 0 011.22 5.48q.12 32.34.05 64.69a11.56 11.56 0 01-8.87 11.7 13.71 13.71 0 01-3.67.43Q67.88 89 12.54 89C6.43 89 2 85.83.47 80.24A13.65 13.65 0 010 76.58V12.42C0 6.38 3.22 2 8.88.45A15.79 15.79 0 0112.94 0H68zM3.45 27.55v48.77c0 5.82 3.4 9.23 9.21 9.23h110.43c5.83 0 9.23-3.4 9.23-9.21V27.55zM3.5 19h128.79c0-2.66.08-5.22 0-7.77a8.15 8.15 0 00-.87-3.16c-1.69-3.38-4.64-4.62-8.28-4.62H11.87c-4.66.23-8 3.21-8.34 7.63-.18 2.6-.03 5.21-.03 7.92z"/><path d="M31.21 68.1h-9.55c-4.48 0-7.25-2.78-7.29-7.28v-6.9c.05-4.4 2.82-7.22 7.22-7.24q9.61-.06 19.22 0c4.32 0 7.11 2.86 7.16 7.17v7c0 4.41-2.83 7.2-7.22 7.22-3.18.04-6.36.03-9.54.03zm-.05-3.45h9.54c2.44 0 3.8-1.33 3.82-3.74s0-4.68 0-7a3.44 3.44 0 00-3.8-3.77H21.64a3.45 3.45 0 00-3.82 3.75v7a3.44 3.44 0 003.8 3.76zM92 50.11H65.13c-.49 0-1.08.15-1.43-.07-.57-.36-1.3-.94-1.35-1.49s.57-1.25 1.07-1.69c.29-.26.92-.19 1.4-.19h54.32c.53 0 1.21-.07 1.53.22a2.64 2.64 0 011 1.76c0 .49-.75 1.06-1.3 1.38-.36.22-.94.08-1.43.08zM77.4 63.6H64.56c-1.55 0-2.32-.59-2.32-1.73s.79-1.71 2.35-1.71h25.67c1.55 0 2.33.61 2.32 1.74s-.78 1.7-2.34 1.7z"/></symbol>
    <symbol viewBox="0 0 118.19 118.22" id="z-discount"><path d="M118.19 59.35c-4.59 4.09-9.17 8.19-13.79 12.26-.57.5-.5.89-.24 1.48q3.34 7.59 6.65 15.21c.09.2.16.42.3.77-.49 0-.88.06-1.28.07-5.93.12-11.85.25-17.78.31-1 0-1.27.39-1.33 1.33-.37 5.88-.79 11.75-1.21 17.62 0 .52-.11 1-.18 1.7L72 101.66l-11.07 16.56-12.57-16.56-18.83 8.82c-.38-7-.75-13.74-1.13-20.6L8.15 87.66c.21-.49.36-.87.53-1.24 2.37-5 4.72-10.1 7.12-15.12a1 1 0 00-.39-1.58C10.61 66.18 5.85 62.59 1.07 59c-.31-.23-.6-.47-1.07-.83l15.85-9.58L8.1 28.73l20.68-1.11c.37-7 .74-13.88 1.12-21l18.48 9.57L59.77 0H60a8.14 8.14 0 00.49.87c3.59 4.67 7.2 9.31 10.75 14 .57.75 1 .92 1.86.48 5.1-2.5 10.25-4.92 15.38-7.37.39-.19.79-.36 1.26-.57.64 6.85 1.25 13.53 1.87 20.21l21 1.85-10 17.34c.17.12.34.23.49.35l14.5 11.66a2.69 2.69 0 00.59.29zM83.34 18.62L69.8 25.07l-9.73-12.63-9.39 13.28-14-7.25-.88 16.16-17.1.94L25 51.73l-11.8 7.12L25.46 68 19.2 81.42c5.22.58 10.18 1.15 15.15 1.65.87.09 1.16.33 1.19 1.22.12 3.42.33 6.84.51 10.26.08 1.48.18 3 .28 4.57l14.32-6.69 9.9 13.06 8.91-13.29 13.32 6.47L84 82.08h16c-.26-.66-.42-1.08-.6-1.5-1.38-3.17-2.74-6.34-4.16-9.5a1 1 0 01.31-1.45c3.41-3 6.78-6 10.17-9.07.33-.3.65-.61 1-1l-13.62-11 7.32-12.73-15.61-1.39c-.49-5.29-.97-10.44-1.47-15.82z"/><path d="M80.3 68.85a11.1 11.1 0 01-1.3 6.32c-1.8 3-5.48 4.26-9.2 3.29a6.86 6.86 0 01-5-4.46 14.9 14.9 0 010-10.16A7.35 7.35 0 0172.49 59c4.8.4 7.5 3.17 7.81 8 .04.62 0 1.23 0 1.85zm-5.54 0c-.16-1.32-.24-2.62-.51-3.9A2.11 2.11 0 0072.11 63a2.09 2.09 0 00-2.19 1.82 15.89 15.89 0 000 7.87 2.13 2.13 0 002.25 1.9 2.11 2.11 0 002.1-1.93c.25-1.25.33-2.56.49-3.85zM38.64 49.76c0-3.27.19-6.49 2.94-8.86 4.47-3.86 12-1.31 13.14 4.46a17.28 17.28 0 010 7.09c-1 4.81-5 7.34-9.83 6.28-3.67-.81-5.85-3.44-6.19-7.48 0-.49-.03-.99-.06-1.49zm5.51-1.18c.08 1.26.12 2.18.2 3.1a6.29 6.29 0 00.23 1.13c.36 1.33 1.08 2 2.2 2s1.87-.55 2.21-1.95a16.35 16.35 0 000-7.65c-.32-1.37-1.08-2-2.17-2a2.23 2.23 0 00-2.24 2.08c-.25 1.17-.32 2.4-.43 3.29zM72 39.17c-.24.53-.39.88-.56 1.21Q62.12 59 52.8 77.67a1.59 1.59 0 01-1.76 1c-1.29-.08-2.58 0-4 0 .24-.53.39-.91.57-1.27Q57 58.81 66.35 40.2a1.61 1.61 0 011.77-1.05c1.22.07 2.45.02 3.88.02z"/></symbol>
    <symbol viewBox="0 0 87.86 118.22" id="z-lock"><path d="M16.47 118.22a38.7 38.7 0 01-6.09-2C4 112.94.21 107.6.11 100.33-.09 85.75 0 71.17 0 56.58v-7.85a6.36 6.36 0 014.14-6.1 1.48 1.48 0 001-1.7 44.85 44.85 0 011.59-12.67 38.37 38.37 0 0110.13-17.18A37.46 37.46 0 0135.79.89a38 38 0 0127.49 4.3A38.16 38.16 0 0180.89 26.9a39.83 39.83 0 011.88 13.41v1.87a6.74 6.74 0 015.07 6.55c0 17.28.07 34.56 0 51.83-.06 8.53-7 16.17-15.5 17.42a6.59 6.59 0 00-.87.24zM44 47.13H7.81c-2.14 0-2.58.43-2.58 2.55v49.41a16.83 16.83 0 00.28 3.33 13.21 13.21 0 0013.32 10.7h38.21c4.12 0 8.23.05 12.35 0a13 13 0 0010.89-5.73 14.2 14.2 0 002.27-8.63c-.09-16.35 0-32.71 0-49.06 0-2.14-.42-2.56-2.56-2.56zM20.33 42C18.72 25.91 31.16 15.52 42.2 14.77a23.46 23.46 0 0117 5.25c6.92 5.65 9.45 13.19 8.87 22h9.36A33.74 33.74 0 0062.8 11.06 33.51 33.51 0 0010.6 42zm5.33-.14h37.15c.65-8.55-2-15.56-9.65-19.76-6.93-3.78-13.91-3.21-20.26 1.56-6.04 4.53-7.84 10.9-7.24 18.2z"/><path d="M25.66 41.86c-.6-7.3 1.2-13.67 7.24-18.2 6.35-4.77 13.33-5.34 20.26-1.56 7.69 4.2 10.3 11.21 9.65 19.76zm8.81 46.21c0-2.57.05-5.15 0-7.73a3.64 3.64 0 00-.67-2 12.29 12.29 0 0114-19A12 12 0 0153.18 78a3.6 3.6 0 00-.79 2.31q.06 7.5 0 15c0 3.3-1.61 5.92-4.45 6.29a36.06 36.06 0 01-9.05 0c-2.68-.33-4.36-2.86-4.42-5.71v-7.85zm5.24-1.29v8c0 1.59.15 1.73 1.69 1.74h3.92c1.74 0 1.86-.12 1.86-1.81V79.14a4.9 4.9 0 011.5-3.81A6.49 6.49 0 0050 73.19a6.89 6.89 0 00-2.89-8.5A7.06 7.06 0 0038 66.37a6.87 6.87 0 00.34 9.06 4.67 4.67 0 011.38 3.51c-.04 2.61-.01 5.23-.01 7.84z"/></symbol>
    <symbol viewBox="0 0 129.36 76.85" id="z-truck"><path d="M84.51 6h2.34c6.52 0 13.06-.13 19.57.12 5.35.21 8.82 3.46 10 8.68 1.27 5.45 2.55 10.89 3.79 16.34a2.75 2.75 0 001.47 2c2 1.07 3.93 2.27 5.91 3.39a3.11 3.11 0 011.72 3V63.4c0 2.28-.92 3.18-3.25 3.18h-11.24c-.88 0-1.33.19-1.61 1.12a12.8 12.8 0 01-24.6 0c-.23-.74-.52-1.07-1.38-1.07h-50.8a37.71 37.71 0 01-2.63 5 12.09 12.09 0 01-12.37 5.1 12.29 12.29 0 01-10.2-8.85c-.32-.94-.64-1.36-1.71-1.3-2 .1-4 0-6.06 0C.84 66.52 0 65.69 0 63.06V3.32C0 .9.89 0 3.26 0h77.93c2.41 0 3.28.87 3.31 3.26.02.83.01 1.67.01 2.74zm-5.24 36.87V5.19h-74v37.68zm5.3-31.69v50.15h3.74c.15-.49.27-1 .44-1.44A12.42 12.42 0 0197 51.77a12.71 12.71 0 0116.33 8.64 1.21 1.21 0 001.41 1h8.46c.32 0 .64-.06 1-.09v-7h-7c-1.89 0-2.94-1-3-2.7q-.08-3.84 0-7.7a2.43 2.43 0 012.28-2.56 10.33 10.33 0 011.76-.09h5.9l.2-.36a6.07 6.07 0 00-.93-.9c-1.59-1-3.17-1.91-4.81-2.77a4.58 4.58 0 00-2-.55H97.91c-2.75 0-3.61-.86-3.61-3.63V11.18zM36.13 61.31h43.11v-4H57.17a7.3 7.3 0 01-1.62-.16 2.48 2.48 0 010-4.87 8.57 8.57 0 011.75-.16h22v-4h-74V61.4c1.38 0 2.69-.1 4 0s1.78-.33 2.16-1.56C14 51.19 25.55 48.2 32.12 54.42a13.76 13.76 0 014.01 6.89zm63.45-50.15v20.28h15.28c0-.15.11-.24.1-.31-1.28-5.47-2.47-11-3.9-16.41a4.72 4.72 0 00-4.48-3.53c-2.3-.19-4.58-.03-7-.03zm-76 60.56A7.74 7.74 0 1015.76 64a7.85 7.85 0 007.78 7.72zM108.66 64a7.71 7.71 0 10-7.66 7.72 7.72 7.72 0 007.66-7.72zm15.55-17.37h-4.85v2.5h4.73a6.89 6.89 0 00.11-.8c.02-.58.01-1.12.01-1.75z"/><path d="M46.27 57.33h-.38c-2 0-3.21-1-3.2-2.62s1.2-2.53 3.13-2.57a10.84 10.84 0 011.89.1 2.5 2.5 0 01.07 5 14.94 14.94 0 01-1.5.15z"/></symbol>
</svg>